<?xml version="1.0" encoding="utf-8"?>
<!-- Generator: Adobe Illustrator 16.0.0, SVG Export Plug-In . SVG Version: 6.00 Build 0)  -->
<!DOCTYPE svg PUBLIC "-//W3C//DTD SVG 1.1//EN" "http://www.w3.org/Graphics/SVG/1.1/DTD/svg11.dtd">
<svg version="1.1" id="图层_1" xmlns="http://www.w3.org/2000/svg" xmlns:xlink="http://www.w3.org/1999/xlink" x="0px" y="0px"
	 width="50px" height="50px" viewBox="0 0 50 50" enable-background="new 0 0 50 50" xml:space="preserve">
<g>
	<polygon fill="#EF7C26" points="50,33.482 29.464,33.482 8.929,33.482 0,25 8.929,16.518 29.464,16.518 50,16.518 50,25 	"/>
	<g>
		<path fill="#FFFFFF" d="M11.948,22.186h0.9v1.434h6.257V20.93h-7.544v-0.774h8.423v4.876h-0.879v-0.638h-6.257v3.045
			c0,0.642,0.303,0.962,0.91,0.962h5.158c0.6,0,0.963-0.216,1.088-0.648c0.126-0.426,0.22-0.994,0.283-1.705
			c0.271,0.118,0.571,0.223,0.899,0.313c-0.098,0.726-0.202,1.305-0.313,1.737c-0.21,0.788-0.796,1.182-1.758,1.182H13.55
			c-1.067,0-1.602-0.551-1.602-1.653V22.186z"/>
		<path fill="#FFFFFF" d="M21.888,25.073h9.836v0.743h-3.38v2.218c0,0.461,0.227,0.69,0.681,0.69h1.108
			c0.475,0,0.739-0.16,0.796-0.48c0.056-0.321,0.094-0.778,0.114-1.371c0.252,0.098,0.559,0.202,0.921,0.313
			c-0.049,0.572-0.111,1.04-0.188,1.402c-0.098,0.6-0.52,0.899-1.266,0.899h-1.705c-0.872,0-1.309-0.446-1.309-1.339v-2.333h-1.878
			c-0.018,1.967-1.17,3.278-3.458,3.934c-0.14-0.229-0.313-0.488-0.523-0.774c2.065-0.502,3.115-1.555,3.149-3.159h-2.898V25.073z
			 M21.972,20.763h4.479c-0.136-0.283-0.311-0.614-0.523-0.994l0.816-0.377c0.275,0.53,0.499,0.987,0.67,1.371h4.185v1.925H30.74
			v-1.183h-7.91v1.183h-0.858V20.763z M23.186,22.907h7.366v0.732h-7.366V22.907z"/>
		<path fill="#FFFFFF" d="M36.746,28.935c0.806-0.541,1.524-1.171,2.155-1.889c-0.404-1.029-0.644-2.691-0.716-4.986h-3.95v1.591
			h3.014c-0.042,1.332-0.098,2.452-0.168,3.358c-0.084,0.963-0.551,1.444-1.402,1.444c-0.285,0-0.666-0.015-1.14-0.042
			c-0.042-0.258-0.098-0.548-0.168-0.868c0.488,0.069,0.896,0.104,1.225,0.104c0.404,0,0.631-0.279,0.68-0.837
			c0.056-0.642,0.098-1.438,0.126-2.386H34.23c-0.057,2.424-0.546,4.217-1.471,5.378c-0.174-0.237-0.355-0.478-0.544-0.722
			c0.788-1.047,1.183-2.7,1.183-4.96v-2.836h4.755c-0.024-0.551-0.047-1.147-0.067-1.789h0.868
			c-0.004,0.492,0.005,1.088,0.026,1.789h3.604v0.774h-3.578c0.069,1.877,0.242,3.279,0.518,4.207
			c0.677-0.918,1.232-1.957,1.669-3.119l0.826,0.346c-0.6,1.42-1.32,2.654-2.16,3.704c0.513,1.043,1.013,1.564,1.501,1.564
			c0.178,0,0.314-0.162,0.408-0.486c0.098-0.51,0.175-1.032,0.23-1.569c0.3,0.118,0.564,0.216,0.795,0.293
			c-0.104,0.746-0.22,1.356-0.345,1.83c-0.133,0.51-0.426,0.785-0.879,0.827c-0.426,0.027-0.834-0.115-1.225-0.429
			c-0.422-0.325-0.781-0.771-1.078-1.34c-0.589,0.635-1.23,1.193-1.925,1.674C37.161,29.353,36.963,29.144,36.746,28.935z
			 M39.749,20.009l0.439-0.544c0.586,0.335,1.134,0.684,1.643,1.046l-0.502,0.628C40.827,20.741,40.301,20.364,39.749,20.009z"/>
	</g>
</g>
</svg>
