
<svg xmlns="http://www.w3.org/2000/svg" version="1.1" xmlns:xlink="http://www.w3.org/1999/xlink" preserveAspectRatio="none" x="0px" y="0px" width="80px" height="80px" viewBox="0 0 80 80">
<defs>
<g id="Layer0_0_FILL">
<path fill="#D2D2D2" stroke="none" d="
M 67.35 58.1
L 67.35 53.45 57.85 53.45 57.85 49.45
Q 56.65 49.95 55.25 49.95 54.1 49.95 53.15 49.65
L 53.15 53.45 46.65 53.45 46.65 58.1 53.15 58.1 53.15 63.6 46.8 63.6 46.8 67.65 64.4 67.65
Q 67.55 67.45 67.35 64.5
L 67.35 63.6 57.85 63.6 57.85 58.1 67.35 58.1
M 35.25 55.75
Q 35.2 55.9 35.15 56.1 34.55 57.5 33.15 58 31.75 58.55 30.4 57.9 29 57.25 28.45 55.8 27.9 54.35 28.5 52.95 28.55 52.8 28.6 52.65 28.65 52.6 25.25 50.95
L 25.25 51
Q 25.15 51.1 25.1 51.25 25.1 51.3 25.05 51.35 23.9 54.2 25 57.1 26.15 60.05 28.95 61.4 31.7 62.7 34.55 61.65 37.35 60.55 38.55 57.7 38.6 57.55 38.7 57.35
L 38.65 57.3 35.3 55.7 35.25 55.75
M 33.6 52.7
Q 32.9 51.95 31.95 51.95 31 51.95 30.3 52.7 29.6 53.4 29.6 54.4 29.6 55.45 30.3 56.15 31 56.85 31.95 56.85 32.9 56.85 33.6 56.15 34.3 55.45 34.3 54.4 34.3 53.4 33.6 52.7
M 20.25 15.3
Q 24 14.7 24.8 11.3
L 14.95 11.3
Q 12.15 11.95 11.85 15.3
L 20.25 15.3
M 34.65 11
Q 33.55 11 32.75 11.8 31.95 12.65 31.95 13.8 31.95 14.95 32.75 15.75 33.55 16.6 34.65 16.6 35.75 16.6 36.55 15.75 37.3 14.95 37.3 13.8 37.3 12.65 36.55 11.8 35.75 11 34.65 11
M 61.5 46.1
L 67.45 46.1 67.45 42.35 62 42.35
Q 62.05 42.85 62.05 43.4 62.05 44.85 61.5 46.1
M 60 43.15
Q 60 41.25 58.65 40 57.3 38.7 55.4 38.7 55.35 38.7 55.3 38.7 54.95 38.7 54.65 38.75 53.25 38.95 52.2 40 50.85 41.25 50.85 43.15 50.85 45 52.2 46.3 53.55 47.6 55.4 47.6 57.3 47.6 58.65 46.3 60 45 60 43.15
M 56.3 42.3
Q 56.6 42.65 56.6 43.1 56.6 43.55 56.3 43.85 55.95 44.2 55.5 44.2 55.05 44.2 54.7 43.85 54.4 43.55 54.4 43.1 54.4 42.65 54.7 42.3 55.05 42 55.5 42 55.95 42 56.3 42.3
M 44.4 42.35
Q 40.7 42.45 40.55 46.45
L 40.55 62.65
Q 40.55 63.7 39.85 64.05 39.75 64.1 39.65 64.1
L 23.75 64.1
Q 23.7 64.1 23.6 64.1 21.75 64.05 21.65 61.95
L 21.65 53.8 21.6 53.8
Q 21.648828125 53.7986328125 21.65 53.75
L 21.65 53.8
Q 23.15 52.05 24.25 49.75 24.35 49.45 24.5 49.2 24.95 48.15 25.35 47.05 25.55 46.5 25.7 45.95
L 33.95 45.95 33.95 48.25 37.4 48.25 37.4 44.3
Q 37.25 42.45 35.6 42.25
L 26.9 42.2
Q 26.9 40.6 26.35 39.15 26.15 38.5 25.8 37.9 25.5 37.35 25.15 36.8
L 20.8 38.8
Q 22.15 39.95 22.55 41.1 22.7 41.65 22.65 42.2
L 13.65 42.2
Q 11.9 42.35 11.75 44.2
L 11.75 48.2 15.45 48.2 15.45 45.95 21.35 45.95
Q 21.15 46.5 20.95 47.05 19.7 50 17.7 52.3 15.25 55 11.65 56.65
L 11.65 60.75
Q 15.2 59.3 17.7 57.35 17.85 57.25 18 57.1
L 18 64.3
Q 18.25 67.1 21.15 67.55
L 27.05 67.55
Q 27.9 67.55 28.5 68.1
L 31.2 70.6 34.1 68.05
Q 34.7 67.6 35.8 67.55
L 42.15 67.55
Q 44.4 67.1 44.65 65.1
L 44.65 48.1
Q 44.65 47.85 44.7 47.65 44.85 46.05 46.6 46.1
L 49.2 46.1
Q 48.6 44.85 48.6 43.4 48.6 42.85 48.7 42.35
L 44.4 42.35
M 61.75 24.1
Q 61.75 22.65 60.75 21.65 59.7 20.65 58.3 20.65 56.85 20.65 55.85 21.65 54.8 22.65 54.8 24.1 54.8 25.5 55.85 26.5 56.85 27.55 58.3 27.55 59.7 27.55 60.75 26.5 61.75 25.5 61.75 24.1
M 67.55 16.75
Q 67.35 13.5 64.1 13.1
L 58.8 13.1 59.2 11 55.2 11 54.5 15.45
Q 54.25 16.35 53.95 16.35
L 53.85 16.35 53.85 16.4 52.95 16.4 52.95 13 49.15 13 49.7 11.1 45.25 11.1 44.7 13 42.95 13
Q 41.1 12.95 41.15 14.75
L 41.15 32.2
Q 41 33.25 39.9 33.45
L 31.85 33.45
Q 30.9 33.4 30.9 32.6
L 30.9 31.7 32.9 31.7
Q 36.65 31.7 36.65 28.35
L 36.65 23.2 32.65 23.2 32.65 27.4
Q 32.65 27.8 32.4 28 32.2 28.1 31.95 28.1
L 30.9 28.1 30.9 21.1 36.7 21.1 36.7 20.5
Q 36.3 17.55 33.6 17.4
L 30.9 17.4 30.9 14.4
Q 30.75 11.6 27.35 11.4
L 26.65 11.4 26.65 17.4 11.8 17.4 11.8 21.1 17.25 21.1 17.25 23.9 14.5 26.95
Q 14.05 27.5 13.05 27.5
L 11.8 27.5 11.8 30.9 14.9 30.9
Q 15.85 30.9 16.55 30.25
L 17.25 29.5 17.25 32.75
Q 17.25 33.05 17.05 33.25 16.85 33.45 16.45 33.45
L 11.7 33.45 11.7 37.15 17.5 37.15
Q 19.05 37.15 19.95 36.65 21.5 35.8 21.5 33.7
L 21.5 26.7 24.95 26.7 24.95 22.95 21.5 22.95 21.5 21.1 26.65 21.1 26.65 28.1 23.25 28.1 23.25 31.7 26.65 31.7 26.65 33.45
Q 26.65 35.85 28.55 36.65 29.5 37.05 30.9 37.05
L 35.1 37.05
Q 36.05 37.15 36.45 37.65
L 39.45 40.75 42.5 37.7
Q 43.2 37.1 44.05 37.05
L 48.85 37.05
Q 49.7 37 50.35 36.85
L 50.55 36.8
Q 52.9 36.1 53.05 33.4
L 53.05 19.7 55.2 19.7
Q 57.3 19.7 57.85 17.5
L 57.95 16.95 63.45 16.95 63.45 32.5
Q 63.45 33.3 62.5 33.3
L 60.85 33.3
Q 60.15 33.3 60 32.45
L 60 28.7 56.25 31.2 56.25 34.55
Q 56.6 36.4 58.75 36.8
L 65.35 36.8
Q 65.55 36.7 65.75 36.65 67.55 36 67.55 33.75
L 67.55 16.75
M 49.15 16.6
L 49.15 23.2 45.15 23.2 45.15 16.6 49.15 16.6
M 49.1 33.45
L 45.15 33.45 45.15 27.05 49.15 27.05 49.15 33.2
Q 49.15 33.3 49.1 33.45 Z"/>
</g>
</defs>

<g transform="matrix( 1, 0, 0, 1, 0,0) ">
<use xlink:href="#Layer0_0_FILL"/>
</g>
</svg>
