<?xml version="1.0" encoding="utf-8"?>
<!-- Generator: Adobe Illustrator 16.0.0, SVG Export Plug-In . SVG Version: 6.00 Build 0)  -->
<!DOCTYPE svg PUBLIC "-//W3C//DTD SVG 1.1//EN" "http://www.w3.org/Graphics/SVG/1.1/DTD/svg11.dtd">
<svg version="1.1" id="图层_1" xmlns="http://www.w3.org/2000/svg" xmlns:xlink="http://www.w3.org/1999/xlink" x="0px" y="0px"
	 width="50px" height="50px" viewBox="0 0 50 50" enable-background="new 0 0 50 50" xml:space="preserve">
<g>
	<polygon fill="#F79341" points="50,33.482 29.464,33.482 8.929,33.482 0,25 8.929,16.518 29.464,16.518 50,16.518 50,25 	"/>
	<g>
		<path fill="#FFFFFF" d="M11.948,22.186h0.9v1.434h6.257V20.93h-7.544v-0.774h8.423v4.876h-0.879v-0.638h-6.257v3.045
			c0,0.642,0.303,0.962,0.91,0.962h5.158c0.6,0,0.963-0.216,1.088-0.648c0.126-0.426,0.22-0.994,0.283-1.705
			c0.271,0.118,0.571,0.223,0.899,0.313c-0.098,0.726-0.202,1.305-0.313,1.737c-0.21,0.788-0.796,1.182-1.758,1.182H13.55
			c-1.067,0-1.602-0.551-1.602-1.653V22.186z"/>
		<path fill="#FFFFFF" d="M25.143,26.904c0.021,0.349,0.045,0.648,0.073,0.9c-0.9,0.62-1.626,1.154-2.177,1.601l-0.492-0.701
			c0.237-0.202,0.356-0.488,0.356-0.858v-4.038h-1.309v-0.754h2.114v4.897C24.169,27.623,24.646,27.274,25.143,26.904z
			 M22.662,19.611c0.761,0.781,1.312,1.36,1.653,1.737l-0.732,0.617c-0.439-0.579-0.959-1.179-1.559-1.8L22.662,19.611z
			 M24.357,24.958h3.39v-4.049h-2.824v-0.785h6.508v0.785h-2.836v4.049h3.411v0.796h-3.411v3.934h-0.848v-3.934h-3.39V24.958z
			 M24.87,22.008l0.659-0.397c0.523,0.753,0.99,1.485,1.402,2.197l-0.732,0.471C25.731,23.413,25.289,22.656,24.87,22.008z
			 M29.338,23.839c0.502-0.684,0.97-1.427,1.402-2.229l0.764,0.46c-0.453,0.739-0.952,1.493-1.496,2.26L29.338,23.839z"/>
		<path fill="#FFFFFF" d="M32.258,24.729c0.941-1.473,1.678-3.198,2.208-5.18l0.815,0.251c-0.251,0.803-0.516,1.552-0.795,2.25
			v7.731h-0.785v-5.984c-0.349,0.684-0.711,1.298-1.088,1.842C32.48,25.262,32.362,24.958,32.258,24.729z M39.373,19.528
			l-0.146,0.261c0.864,1.528,2.029,2.63,3.494,3.307c-0.182,0.209-0.373,0.453-0.575,0.732c-1.416-0.816-2.532-1.932-3.349-3.348
			c-0.781,1.346-1.883,2.518-3.306,3.516c-0.168-0.244-0.35-0.464-0.545-0.659c1.577-0.991,2.738-2.261,3.484-3.809H39.373z
			 M37.688,23.619v1.485c0,2.017-0.579,3.596-1.737,4.74c-0.202-0.202-0.436-0.397-0.701-0.586c1.081-0.99,1.622-2.351,1.622-4.081
			v-1.559H37.688z M39.896,23.619h0.816v6.121h-0.816V23.619z"/>
	</g>
</g>
</svg>
