<?xml version="1.0" encoding="utf-8"?>
<!-- Generator: Adobe Illustrator 16.0.0, SVG Export Plug-In . SVG Version: 6.00 Build 0)  -->
<!DOCTYPE svg PUBLIC "-//W3C//DTD SVG 1.1//EN" "http://www.w3.org/Graphics/SVG/1.1/DTD/svg11.dtd">
<svg version="1.1" id="图层_1" xmlns="http://www.w3.org/2000/svg" xmlns:xlink="http://www.w3.org/1999/xlink" x="0px" y="0px"
	 width="50px" height="50px" viewBox="0 0 50 50" enable-background="new 0 0 50 50" xml:space="preserve">
<g>
	<polygon fill="#B6B6B6" points="50,33.482 29.464,33.482 8.929,33.482 0,25 8.929,16.518 29.464,16.518 50,16.518 50,25 	"/>
	<g>
		<path fill="#5B5B5B" d="M11.948,22.186h0.9v1.434h6.257V20.93h-7.544v-0.774h8.423v4.876h-0.879v-0.638h-6.257v3.045
			c0,0.642,0.303,0.962,0.91,0.962h5.158c0.6,0,0.963-0.216,1.088-0.648c0.126-0.426,0.22-0.994,0.283-1.705
			c0.271,0.118,0.571,0.223,0.899,0.313c-0.098,0.726-0.202,1.305-0.313,1.737c-0.21,0.788-0.796,1.182-1.758,1.182H13.55
			c-1.067,0-1.602-0.551-1.602-1.653V22.186z"/>
		<path fill="#5B5B5B" d="M26,28.6l2.814,0.052l3.181-0.104c-0.118,0.279-0.229,0.555-0.334,0.827l-3.066,0.041l-2.679-0.063
			c-1.199-0.014-2.082-0.411-2.646-1.192c-0.195,0.153-0.601,0.593-1.214,1.318L21.616,28.6c0.54-0.495,0.97-0.877,1.287-1.146
			v-3.595h-1.214v-0.753h2.02v4.535C24.222,28.263,24.985,28.582,26,28.6z M22.693,19.518c0.461,0.53,0.963,1.179,1.507,1.946
			c-0.278,0.167-0.526,0.335-0.742,0.502c-0.481-0.746-0.945-1.412-1.392-1.998L22.693,19.518z M24.713,21.474h4.489v-1.998h0.848
			v1.998h1.799v0.765H30.05v4.342c0,0.899-0.433,1.35-1.298,1.35c-0.453,0-0.983-0.003-1.591-0.011
			c-0.034-0.271-0.087-0.586-0.156-0.941c0.558,0.056,1.077,0.084,1.559,0.084c0.433,0,0.646-0.244,0.639-0.732v-4.091h-4.489
			V21.474z M25.132,23.483l0.638-0.472c0.761,0.97,1.343,1.733,1.748,2.292l-0.723,0.533C26.224,24.965,25.669,24.181,25.132,23.483
			z"/>
		<path fill="#5B5B5B" d="M34.109,27.354l0.639,0.502c-0.705,0.761-1.347,1.398-1.926,1.915c-0.146-0.168-0.331-0.353-0.554-0.555
			C32.931,28.651,33.545,28.031,34.109,27.354z M32.352,26.444h0.983V21.61h-0.857v-0.712h0.857v-1.276h0.774v1.276h2.177V19.58
			h0.774v1.318h0.848v0.712h-0.848v4.834h0.837v0.711h-5.546V26.444z M34.109,22.771h2.177V21.61h-2.177V22.771z M34.109,24.603
			h2.177v-1.161h-2.177V24.603z M34.109,26.444h2.177v-1.172h-2.177V26.444z M35.48,27.846l0.502-0.513
			c0.488,0.363,0.949,0.729,1.381,1.099l-0.554,0.597C36.419,28.638,35.976,28.244,35.48,27.846z M38.452,19.873h3.704v8.485
			c0,0.823-0.391,1.235-1.172,1.235c-0.391,0-0.774-0.011-1.151-0.032c-0.028-0.229-0.069-0.498-0.126-0.806
			c0.51,0.049,0.876,0.073,1.099,0.073c0.384,0,0.576-0.191,0.576-0.575v-2.197h-2.239c-0.077,1.528-0.541,2.797-1.392,3.809
			c-0.188-0.195-0.397-0.391-0.628-0.586c0.565-0.648,0.924-1.321,1.078-2.02c0.167-0.669,0.251-1.834,0.251-3.494V19.873z
			 M39.189,25.366h2.192v-2.051h-2.155C39.233,24.216,39.221,24.899,39.189,25.366z M41.382,20.585h-2.155v2.04h2.155V20.585z"/>
	</g>
</g>
</svg>
