<?xml version="1.0" encoding="utf-8"?>
<!-- Generator: Adobe Illustrator 16.0.0, SVG Export Plug-In . SVG Version: 6.00 Build 0)  -->
<!DOCTYPE svg PUBLIC "-//W3C//DTD SVG 1.1//EN" "http://www.w3.org/Graphics/SVG/1.1/DTD/svg11.dtd">
<svg version="1.1" id="图层_1" xmlns="http://www.w3.org/2000/svg" xmlns:xlink="http://www.w3.org/1999/xlink" x="0px" y="0px"
	 width="50px" height="50px" viewBox="0 0 50 50" enable-background="new 0 0 50 50" xml:space="preserve">
<g>
	<polygon fill="#DE620A" points="50,33.481 29.464,33.481 8.929,33.481 0,25 8.929,16.519 29.464,16.519 50,16.519 50,25 	"/>
	<g>
		<path fill="#FFFFFF" d="M11.948,22.187h0.9v1.434h6.257v-2.689h-7.544v-0.774h8.423v4.876h-0.879v-0.639h-6.257v3.045
			c0,0.642,0.303,0.963,0.91,0.963h5.158c0.6,0,0.963-0.216,1.088-0.648c0.126-0.426,0.22-0.994,0.283-1.706
			c0.271,0.119,0.571,0.224,0.899,0.314c-0.098,0.726-0.202,1.304-0.313,1.736c-0.21,0.788-0.796,1.183-1.758,1.183H13.55
			c-1.067,0-1.602-0.551-1.602-1.653V22.187z"/>
		<path fill="#FFFFFF" d="M21.585,24.436c0.97-1.353,1.765-3.017,2.386-4.99l0.857,0.324c-0.289,0.777-0.586,1.501-0.89,2.171v7.779
			h-0.837v-6.116c-0.387,0.688-0.784,1.296-1.192,1.826C21.783,24.963,21.676,24.631,21.585,24.436z M24.63,21.83h4.792v-2.291
			h0.848v2.291h1.517v0.796H30.27v5.294c0,1.088-0.492,1.64-1.476,1.653c-0.328,0.007-0.852,0.003-1.569-0.011
			c-0.035-0.272-0.091-0.586-0.168-0.941c0.67,0.056,1.187,0.083,1.549,0.083c0.321,0.008,0.537-0.063,0.648-0.209
			c0.112-0.132,0.168-0.407,0.168-0.826v-5.043H24.63V21.83z M25.31,24.279l0.701-0.439c0.426,0.613,0.924,1.419,1.496,2.417
			l-0.753,0.471C26.266,25.771,25.784,24.955,25.31,24.279z"/>
		<path fill="#FFFFFF" d="M32.278,28.286c0.377-0.537,0.743-1.186,1.099-1.946l0.67,0.335c-0.391,0.726-0.785,1.385-1.183,1.978
			C32.704,28.527,32.509,28.404,32.278,28.286z M32.708,22.187h1.956V21.15h-2.313v-0.67h2.313v-1.057h0.774v1.057h2.302v0.67
			h-2.302v1.036h1.778v0.669h-4.509V22.187z M32.383,25.336h5.315v0.669h-2.239v2.303c0,0.795-0.394,1.191-1.182,1.191
			c-0.37,0-0.69-0.003-0.963-0.01c-0.042-0.279-0.094-0.547-0.157-0.806c0.286,0.042,0.59,0.063,0.91,0.063
			c0.412,0,0.618-0.213,0.618-0.639v-2.104h-2.303V25.336z M32.917,23.756h4.206v0.67h-4.206V23.756z M35.931,26.696l0.606-0.325
			c0.335,0.475,0.635,0.963,0.899,1.465l-0.659,0.366C36.506,27.645,36.224,27.143,35.931,26.696z M39.32,22.291h0.774
			c-0.007,0.53-0.016,1.013-0.026,1.449c0.335,2.511,1.219,4.288,2.652,5.331c-0.265,0.229-0.481,0.442-0.648,0.638
			c-1.092-0.854-1.853-2.19-2.281-4.007c-0.353,1.59-1.189,2.95-2.511,4.08c-0.153-0.182-0.356-0.373-0.607-0.576
			c1.514-1.213,2.365-2.713,2.554-4.498C39.296,24.052,39.327,23.246,39.32,22.291z M37.27,23.463
			c0.572-1.27,0.966-2.619,1.183-4.05l0.774,0.137c-0.098,0.526-0.208,1.035-0.33,1.527h3.511v0.722
			c-0.188,0.601-0.412,1.252-0.67,1.957c-0.195-0.119-0.439-0.22-0.732-0.304c0.23-0.551,0.429-1.099,0.597-1.643h-2.904
			c-0.209,0.708-0.447,1.378-0.716,2.009C37.729,23.679,37.493,23.561,37.27,23.463z"/>
	</g>
</g>
</svg>
