<?xml version="1.0" encoding="utf-8"?>
<!-- Generator: Adobe Illustrator 16.0.0, SVG Export Plug-In . SVG Version: 6.00 Build 0)  -->
<!DOCTYPE svg PUBLIC "-//W3C//DTD SVG 1.1//EN" "http://www.w3.org/Graphics/SVG/1.1/DTD/svg11.dtd">
<svg version="1.1" id="图层_1" xmlns="http://www.w3.org/2000/svg" xmlns:xlink="http://www.w3.org/1999/xlink" x="0px" y="0px"
	 width="50px" height="50px" viewBox="0 0 50 50" enable-background="new 0 0 50 50" xml:space="preserve">
<g>
	<polygon fill="#D53002" points="50,33.481 29.464,33.481 8.929,33.481 0,25 8.929,16.519 29.464,16.519 50,16.519 50,25 	"/>
	<g>
		<path fill="#FFFFFF" d="M10.85,25.639c0.907-0.858,1.758-2.002,2.554-3.432l0.732,0.376c-0.321,0.537-0.643,1.04-0.963,1.507
			v5.682h-0.785v-4.619c-0.387,0.488-0.777,0.929-1.172,1.323C11.111,26.203,10.989,25.925,10.85,25.639z M10.871,22.363
			c0.983-0.774,1.824-1.758,2.521-2.95l0.743,0.429c-0.887,1.318-1.831,2.406-2.836,3.265
			C11.174,22.862,11.031,22.614,10.871,22.363z M14.083,23.138h3.129v-1.507h-2.669v-0.722h2.669v-1.465h0.837v1.465h2.688v0.722
			h-2.688v1.507h3.107v0.732h-7.073V23.138z M14.104,25.188h4.667v-0.994h0.837v0.994h1.633v0.732h-1.633v2.448
			c0,0.823-0.436,1.235-1.308,1.235c-0.404,0-0.952-0.004-1.643-0.012c-0.042-0.25-0.098-0.543-0.168-0.879
			c0.607,0.049,1.151,0.074,1.633,0.074c0.433,0,0.648-0.237,0.648-0.712v-2.155h-4.667V25.188z M14.857,26.727l0.606-0.471
			c0.503,0.544,0.945,1.057,1.329,1.538l-0.67,0.513C15.732,27.77,15.311,27.243,14.857,26.727z"/>
		<path fill="#FFFFFF" d="M21.585,24.436c0.97-1.354,1.765-3.017,2.386-4.991l0.857,0.324c-0.289,0.778-0.586,1.502-0.89,2.171
			v7.779h-0.837v-6.115c-0.387,0.688-0.784,1.296-1.192,1.826C21.783,24.962,21.676,24.631,21.585,24.436z M24.63,21.83h4.792
			v-2.292h0.848v2.292h1.517v0.795H30.27v5.295c0,1.087-0.492,1.639-1.476,1.652c-0.328,0.007-0.852,0.003-1.569-0.011
			c-0.035-0.271-0.091-0.586-0.168-0.941c0.67,0.057,1.187,0.084,1.549,0.084c0.321,0.007,0.537-0.063,0.648-0.209
			c0.112-0.133,0.168-0.408,0.168-0.827v-5.043H24.63V21.83z M25.31,24.278l0.701-0.439c0.426,0.614,0.924,1.42,1.496,2.417
			l-0.753,0.471C26.266,25.771,25.784,24.955,25.31,24.278z"/>
		<path fill="#FFFFFF" d="M32.278,28.286c0.377-0.537,0.743-1.187,1.099-1.946l0.67,0.335c-0.391,0.725-0.785,1.384-1.183,1.978
			C32.704,28.526,32.509,28.404,32.278,28.286z M32.708,22.186h1.956v-1.036h-2.313V20.48h2.313v-1.057h0.774v1.057h2.302v0.669
			h-2.302v1.036h1.778v0.67h-4.509V22.186z M32.383,25.335h5.315v0.67h-2.239v2.302c0,0.795-0.394,1.192-1.182,1.192
			c-0.37,0-0.69-0.004-0.963-0.01c-0.042-0.279-0.094-0.548-0.157-0.807c0.286,0.043,0.59,0.063,0.91,0.063
			c0.412,0,0.618-0.213,0.618-0.639v-2.103h-2.303V25.335z M32.917,23.755h4.206v0.67h-4.206V23.755z M35.931,26.695l0.606-0.324
			c0.335,0.475,0.635,0.963,0.899,1.465l-0.659,0.366C36.506,27.645,36.224,27.142,35.931,26.695z M39.32,22.29h0.774
			c-0.007,0.53-0.016,1.014-0.026,1.449c0.335,2.512,1.219,4.288,2.652,5.331c-0.265,0.229-0.481,0.442-0.648,0.638
			c-1.092-0.854-1.853-2.189-2.281-4.007c-0.353,1.591-1.189,2.951-2.511,4.081c-0.153-0.182-0.356-0.373-0.607-0.576
			c1.514-1.213,2.365-2.713,2.554-4.499C39.296,24.052,39.327,23.246,39.32,22.29z M37.27,23.462
			c0.572-1.27,0.966-2.619,1.183-4.049l0.774,0.136c-0.098,0.526-0.208,1.036-0.33,1.527h3.511v0.723
			c-0.188,0.6-0.412,1.252-0.67,1.956c-0.195-0.118-0.439-0.22-0.732-0.303c0.23-0.552,0.429-1.099,0.597-1.644h-2.904
			c-0.209,0.709-0.447,1.378-0.716,2.01C37.729,23.679,37.493,23.56,37.27,23.462z"/>
	</g>
</g>
</svg>
